<svg xmlns="http://www.w3.org/2000/svg" viewBox="0 0 512 512" style="enable-background:new 0 0 512 512" xml:space="preserve"><style>.st11{fill:#9ec853}</style><g id="Layer_7"><path class="st11" d="M245 254h21v150h-21zM149.7 270.1c-3.3 25.7 3 49.7 19.7 66.4 16.7 16.7 40.8 23 66.4 19.7 3.3-25.7-3-49.7-19.7-66.4-16.7-16.8-40.8-23-66.4-19.7zM361.1 270.1c-25.7-3.3-49.7 3-66.4 19.7-16.7 16.7-23 40.8-19.7 66.4 25.7 3.3 49.7-3 66.4-19.7 16.7-16.7 22.9-40.8 19.7-66.4z"/><g><path d="M335.4 141.6c-.2-22.6-18.7-40.7-41.2-40.5-18.5.2-34.1 12.7-38.9 29.6-5.1-16.9-20.9-29.1-39.4-28.9-22.6.2-40.7 18.7-40.5 41.2.1 12.5 5.8 23.6 14.7 31 .3.4.7.9 1 1.3l47 55.8c10.4 12.3 27.1 12.2 37.2-.3l46-56.7c1.1-1.3 2-2.6 2.7-3.9 7.1-7.4 11.5-17.5 11.4-28.6z" style="fill:#db4646"/><path d="M214.2 112.3c-14.2 2.9-24.2 14.2-25.9 28.4-.7 5.5 8 5.5 8.7 0 1.3-10.5 9.5-18 19.6-20.1 5.4-1 3-9.4-2.4-8.3z" style="fill:#e7ad84"/></g></g></svg>
